<svg width="31" height="31" viewBox="0 0 31 31" fill="none" xmlns="http://www.w3.org/2000/svg">
<path d="M25.7344 16.2031C25.1433 16.204 24.567 16.3876 24.0844 16.7289C23.6018 17.0702 23.2366 17.5524 23.0388 18.1094H20.7025L19.0137 13.0423C18.9492 12.8493 18.8247 12.6819 18.6583 12.5647C18.4919 12.4475 18.2924 12.3866 18.0889 12.391C17.8854 12.3954 17.6887 12.4648 17.5275 12.5891C17.3664 12.7134 17.2492 12.886 17.1932 13.0816L14.5417 22.3603L11.4244 3.65524C11.3882 3.43927 11.2788 3.24234 11.1146 3.09756C10.9503 2.95277 10.7412 2.86896 10.5224 2.86023C10.3036 2.85149 10.0885 2.91835 9.91316 3.04958C9.73787 3.1808 9.6131 3.36838 9.55984 3.58078L5.92784 18.1094H2.85937C2.60659 18.1094 2.36416 18.2098 2.18541 18.3885C2.00667 18.5673 1.90625 18.8097 1.90625 19.0625C1.90625 19.3153 2.00667 19.5577 2.18541 19.7365C2.36416 19.9152 2.60659 20.0156 2.85937 20.0156H6.67187C6.88442 20.0156 7.09085 19.9445 7.25837 19.8137C7.42588 19.6829 7.54486 19.4998 7.59641 19.2936L10.2973 8.48937L13.3569 26.8442C13.3921 27.0579 13.4991 27.2532 13.6602 27.398C13.8214 27.5428 14.027 27.6284 14.2433 27.6406C14.2611 27.6406 14.279 27.6406 14.2975 27.6406C14.5044 27.6405 14.7057 27.5729 14.8709 27.4483C15.036 27.3236 15.1562 27.1486 15.2131 26.9496L18.1797 16.5677L19.1113 19.3639C19.1746 19.5537 19.296 19.7188 19.4583 19.8357C19.6206 19.9527 19.8156 20.0156 20.0156 20.0156H23.0388C23.2136 20.5099 23.5208 20.9466 23.927 21.278C24.3332 21.6094 24.8226 21.8228 25.3419 21.8948C25.8612 21.9668 26.3902 21.8947 26.8712 21.6863C27.3523 21.4779 27.7668 21.1413 28.0694 20.7132C28.3721 20.2852 28.5512 19.7822 28.5873 19.2592C28.6233 18.7362 28.5149 18.2134 28.2739 17.7479C28.0329 17.2823 27.6685 16.892 27.2206 16.6196C26.7728 16.3471 26.2586 16.2031 25.7344 16.2031Z" fill="#3D4BE3"/>
</svg>
